<svg xmlns="http://www.w3.org/2000/svg" width="1280" height="640" viewBox="0 0 1280 640" role="img" aria-labelledby="title desc">
  <title id="title">Task2Tool</title>
  <desc id="desc">Local discovery for AI agent skills, prompts, agents, and MCP servers</desc>
  <defs>
    <linearGradient id="bg" x1="0" y1="0" x2="1" y2="1"><stop stop-color="#050e0a"/><stop offset=".55" stop-color="#0b2117"/><stop offset="1" stop-color="#071713"/></linearGradient>
    <linearGradient id="accent" x1="0" y1="0" x2="1" y2="0"><stop stop-color="#b6ff78"/><stop offset="1" stop-color="#5cf2bd"/></linearGradient>
    <radialGradient id="glow"><stop stop-color="#37d987" stop-opacity=".3"/><stop offset="1" stop-color="#37d987" stop-opacity="0"/></radialGradient>
    <pattern id="grid" width="42" height="42" patternUnits="userSpaceOnUse"><path d="M42 0H0V42" fill="none" stroke="#b6ff78" stroke-opacity=".05"/></pattern>
  </defs>
  <rect width="1280" height="640" fill="url(#bg)"/>
  <rect width="1280" height="640" fill="url(#grid)"/>
  <circle cx="176" cy="143" r="370" fill="url(#glow)"/>
  <g transform="translate(82 146)" fill="none" stroke-linecap="round" stroke-linejoin="round">
    <rect y="12" width="100" height="70" rx="16" fill="#10291d" stroke="#39654d" stroke-width="3"/>
    <rect y="121" width="100" height="70" rx="16" fill="#10291d" stroke="#39654d" stroke-width="3"/>
    <rect y="230" width="100" height="70" rx="16" fill="#10291d" stroke="#39654d" stroke-width="3"/>
    <path d="M100 47h58m-58 109h58m-58 109h58" stroke="#39654d" stroke-width="5"/>
    <path d="m158 47 83 109-83 109" stroke="url(#accent)" stroke-width="10"/>
    <rect x="241" y="107" width="126" height="98" rx="22" fill="#142f22" stroke="#b6ff78" stroke-width="5"/>
    <path d="m279 157 23 23 40-51" stroke="url(#accent)" stroke-width="13"/>
    <circle cx="50" cy="47" r="10" fill="#5cf2bd" stroke="none"/><circle cx="50" cy="156" r="10" fill="#80dba5" stroke="none"/><circle cx="50" cy="265" r="10" fill="#80dba5" stroke="none"/>
  </g>
  <g font-family="Inter, ui-sans-serif, system-ui, sans-serif">
    <text x="495" y="250" fill="#f0fff5" font-size="88" font-weight="850" letter-spacing="-5">Task2Tool</text>
    <text x="501" y="310" fill="#b6ff78" font-size="22" font-weight="750" letter-spacing="2.5">LOCAL AI CAPABILITY DISCOVERY</text>
    <text x="501" y="391" fill="#d9e9df" font-size="29" font-weight="600">Ask for a task. Find the few resources that fit.</text>
    <text x="501" y="434" fill="#91aa9d" font-size="26">Skills · agents · prompts · MCP servers</text>
    <g transform="translate(501 489)">
      <rect width="143" height="44" rx="22" fill="#b6ff78" fill-opacity=".12" stroke="#b6ff78" stroke-opacity=".48"/><text x="71" y="29" fill="#e7ffd5" font-size="14" text-anchor="middle" font-weight="750">LOCAL-FIRST</text>
      <rect x="159" width="165" height="44" rx="22" fill="#5cf2bd" fill-opacity=".1" stroke="#5cf2bd" stroke-opacity=".42"/><text x="241" y="29" fill="#c3ffeb" font-size="14" text-anchor="middle" font-weight="750">EXPLAINABLE</text>
      <rect x="340" width="196" height="44" rx="22" fill="#5cf2bd" fill-opacity=".1" stroke="#5cf2bd" stroke-opacity=".42"/><text x="438" y="29" fill="#c3ffeb" font-size="14" text-anchor="middle" font-weight="750">0 DEPENDENCIES</text>
    </g>
  </g>
</svg>
